# xmcd
#
# Track frame offsets:
#	150
#	18728
#	33658
#	48478
#	63646
#	78574
#	92271
#	106053
#	119380
#	135319
#	151704
#	166428
#	183311
#	200164
#	216493
#	234168
#	251566
#	266317
#	280538
#	296055
#
# Disc length: 4154 seconds
#
# Revision: 1
# Processed by: cddbd v1.5.2PL0 Copyright (c) Steve Scherf et al.
# Submitted via: audiograbber 1.83.01
#
DISCID=18103814
DTITLE=Various Artist - CDX Volume 610 (January 5, 2015)
DYEAR=2015
DGENRE=Country
TTITLE0=Mickey Guyton - Better Than You Left Me
TTITLE1=Mo Pitney - Country
TTITLE2=Little Big Town - Girl Crush
TTITLE3=Rachel Holder - I Think Of You
TTITLE4=Miranda Lambert - Little Red Wagon [Single Edit]
TTITLE5=Garth Brooks - Mom [Single Edit]
TTITLE6=Frankie Ballard - Young and Crazy
TTITLE7=Jo Dee Messina - He's Messed Up [Radio Edit]
TTITLE8=LoCash - I Love This Life 
TTITLE9=Ray Price - I Wish I Was 18 Again
TTITLE10=Rachele Lynae - Whole Lotta Nothin'
TTITLE11=Ryan Chrys - Burnin' It Up At Both Ends
TTITLE12=Diana Upton-Hill - Do Love Well 
TTITLE13=Jessica Marie - Don't Let It Bring You Down
TTITLE14=Curtis Braly - Doors Closing Everywhere 
TTITLE15=Heather Dickson - Eventually
TTITLE16=Homegrown Band - I'm Gonna Be Me
TTITLE17=Brian Collins - Never Really Left
TTITLE18=Vic Harris Band - Rowdy Ass Cowboy
TTITLE19=Johnny Orr Band - You Can't Hide Love
EXTD=
EXTT0=
EXTT1=
EXTT2=
EXTT3=
EXTT4=
EXTT5=
EXTT6=
EXTT7=
EXTT8=
EXTT9=
EXTT10=
EXTT11=
EXTT12=
EXTT13=
EXTT14=
EXTT15=
EXTT16=
EXTT17=
EXTT18=
EXTT19=
PLAYORDER=
